<svg width="93.587" height="110.39" viewBox="0 0 24.762 29.208" xmlns="http://www.w3.org/2000/svg"><g stroke-width=".265"><path d="M0 0v27.086l2.122 2.122V2.12z"/><path d="M0 27.087h6.53l2.121 2.122H2.122zm6.535 0V15.776l2.12 2.12v11.312zm0-11.312h9.618l2.12 2.12H8.657z"/><path d="M16.145 15.775v11.31l2.12 2.123V17.897z"/><path d="M16.145 27.087h6.493l2.12 2.122h-6.492zm6.5 0V0l2.12 2.121v27.087z"/><path d="M22.645 0h-6.493l2.12 2.121h6.494zm-6.5 0v10.753l2.12 2.12V2.122z"/><path d="M16.145 10.753H6.527l2.12 2.12h9.619z"/><path d="M6.535 10.753V0l2.12 2.121v10.753z"/><path d="M6.535 0H.005l2.122 2.12h6.529z"/></g><path d="M2.16 14.593V2.143h4.346v8.623l2.15 2.149h9.615V2.143h4.346v24.899h-4.346v-9.19l-2.104-2.102h-9.66v11.292H2.16z" fill="none"/><path d="M2.16 14.593V2.143h4.346v8.623l2.15 2.149h9.615V2.143h4.346v24.899h-4.346v-9.19l-2.104-2.102h-9.66v11.292H2.16z" fill="none"/><path d="M2.16 14.593V2.143h4.346v8.623l2.15 2.149h9.615V2.143h4.346v24.899h-4.346v-9.19l-2.104-2.102h-9.66v11.292H2.16z" fill="none"/><path d="M2.167 14.608V2.135h4.347v8.669l2.102 2.103h9.663V2.135h4.346v24.946H18.28v-9.238l-2.104-2.101h-9.66V27.08H2.167z" fill-opacity=".313" opacity=".603" stroke="#000" stroke-opacity=".699" stroke-width=".194"/></svg>